<?xml version="1.0" encoding="UTF-8"?>
<svg xmlns="http://www.w3.org/2000/svg" viewBox="-14.92 0 222.727 222.727">
  <defs>
    <clipPath id="c">
      <path d="M 17.751,65.93 96.444,20.497 175.136,65.93 v 90.867 L 96.444,202.23 17.751,156.797 Z"/>
    </clipPath>
    <mask id="m">
      <path d="M 0,55.682 96.444,0 192.887,55.682 V 167.045 L 96.444,222.727 0,167.045 Z" fill="white"/>
      <path clip-path="url(#c)" fill="black" d="M 102.971,91.719 c 0.495,-1.417 0.803,-2.231 0.803,-2.231 l 12.206,4.468 c 0,0 -0.363,1.038 -1.043,2.854 -1.732,4.911 -5.259,15.757 -6.14,24.902 -0.26,2.707 -0.309,5.236 0.153,7.294 0.157,0.7 0.151,1.48 0.89,1.48 0.63,0 1.221,-0.478 1.918,-0.944 1.544,-1.031 3.108,-2.511 4.673,-4.21 8.594,-9.332 16.619,-24.905 16.619,-24.905 l 12.228,3.741 c 0,0 -1.007,8.35 0.411,15.03 0.224,1.054 0.508,2.06 0.904,2.945 0.227,0.507 0.193,1.212 0.744,1.212 0.294,0 0.518,-0.286 0.837,-0.49 0.735,-0.469 1.484,-1.084 2.273,-1.794 2.575,-2.32 5.384,-5.522 8.583,-9.002 11.098,-12.073 26.348,-26.745 49.349,-26.745 v 13 c -22.183,0 -35.025,17.573 -44.575,27.761 -3.132,3.341 -6.002,6.056 -8.633,7.736 -2.706,1.729 -5.34,2.534 -7.834,2.534 -6.298,0 -10.614,-3.79 -12.997,-9.822 -0.264,-0.668 -0.5,-1.369 -0.71,-2.095 -2.383,3.42 -4.988,6.824 -7.636,9.7 -5.39,5.853 -11.342,9.348 -16.154,9.348 -4.063,0 -7.096,-1.41 -9.383,-3.638 -1.358,-1.323 -2.461,-3.035 -3.268,-5.071 -2.629,4.442 -5.445,8.69 -8.389,12.398 -8.014,10.092 -17.358,15.993 -26.164,14.856 C 51.338,160.571 44.9,152.134 43.588,139.154 41.207,115.616 57.395,74.996 82.267,52.248 l 8.774,9.593 c -18.853,17.243 -32.3,45.989 -34.421,66.964 -0.508,5.025 -0.368,9.557 0.666,13.257 1.066,3.816 3.179,6.58 7.015,7.076 2.022,0.261 3.982,-0.594 5.959,-1.89 2.888,-1.893 5.67,-4.771 8.359,-8.158 12.049,-15.173 21.696,-40.129 24.352,-47.371 z"/>
    </mask>
  </defs>
  <path d="M 0,55.682 96.444,0 192.887,55.682 V 167.045 L 96.444,222.727 0,167.045 Z" fill="#000" mask="url(#m)"/>
</svg>